<svg width="235" height="42" viewBox="0 0 235 42" fill="none" xmlns="http://www.w3.org/2000/svg">
<path d="M27.4035 1.34047L27.3526 1.31498C27.0467 1.22576 26.7153 1.17477 26.3584 1.17477C24.4593 1.17477 22.9043 2.7425 22.9043 4.64161C22.9043 6.14561 23.873 7.40744 25.2113 7.87903C25.2495 7.89178 25.2877 7.90452 25.326 7.91727C30.8831 9.67618 34.9108 14.851 34.9363 20.9689C34.9108 27.0869 30.8831 32.2744 25.326 34.0205L25.2113 34.0588C23.873 34.5304 22.9043 35.7922 22.9043 37.2962C22.9043 39.1953 24.4593 40.7758 26.3584 40.7758C26.7153 40.7758 27.0467 40.7248 27.3526 40.6228L27.4035 40.5973C35.7393 37.959 41.7935 30.1713 41.819 20.9689C41.7935 11.7665 35.7393 3.97884 27.4035 1.34047Z" fill="#FBBD28"/>
<path d="M14.7598 40.5973L14.798 40.6228C15.1167 40.7248 15.4481 40.7758 15.7922 40.7758C17.6913 40.7758 19.2463 39.1953 19.2463 37.2962C19.2463 35.7922 18.2904 34.5304 16.9393 34.0588C16.9011 34.046 16.8628 34.0333 16.8246 34.0205C11.2802 32.2744 7.25255 27.0869 7.22706 20.9689C7.25255 14.851 11.2802 9.67618 16.8246 7.91727L16.9393 7.87903C18.2904 7.40744 19.2463 6.14561 19.2463 4.64161C19.2463 2.7425 17.6913 1.17477 15.7922 1.17477C15.4481 1.17477 15.1167 1.22576 14.798 1.31498L14.7598 1.34047C6.42408 3.97884 0.369852 11.7665 0.34436 20.9689C0.369852 30.1713 6.42408 37.959 14.7598 40.5973Z" fill="#FBBD28"/>
<path d="M65.7555 41.2729C63.8691 41.2729 62.3396 39.7434 62.3396 37.8698V3.40528C62.3396 1.53166 63.8691 0.00216675 65.7555 0.00216675C67.6291 0.00216675 69.1586 1.53166 69.1586 3.40528V37.8698C69.1586 39.7434 67.6291 41.2729 65.7555 41.2729Z" fill="#FBBD28"/>
<path d="M63.1553 1.20027C64.3662 -0.227255 66.5329 -0.405695 67.9605 0.817896L92.2538 21.7846C93.6814 23.0082 93.8598 25.1623 92.6362 26.5898C91.4254 28.0173 89.2713 28.1957 87.8438 26.9722L63.5377 6.00541C62.1102 4.78182 61.9317 2.62779 63.1553 1.20027Z" fill="#FBBD28"/>
<path d="M100.207 41.5533C98.3336 41.5533 96.8041 40.0238 96.8041 38.1501V3.69842C96.8041 1.81205 98.3336 0.282562 100.207 0.282562C102.081 0.282562 103.61 1.81205 103.61 3.69842V38.1501C103.61 40.0238 102.081 41.5533 100.207 41.5533Z" fill="#FBBD28"/>
<path d="M127.776 41.5533C125.903 41.5533 124.373 40.0238 124.373 38.1501V3.68567C124.373 1.81205 125.903 0.282562 127.776 0.282562C129.663 0.282562 131.179 1.81205 131.179 3.68567V38.1501C131.179 40.0238 129.663 41.5533 127.776 41.5533Z" fill="#FBBD28"/>
<path d="M162.241 41.5533C160.354 41.5533 158.838 40.0238 158.838 38.1501V3.69842C158.838 1.81205 160.354 0.282562 162.241 0.282562C164.114 0.282562 165.644 1.81205 165.644 3.69842V38.1501C165.644 40.0238 164.114 41.5533 162.241 41.5533Z" fill="#FBBD28"/>
<path d="M189.542 41.5533C187.656 41.5533 186.126 40.0238 186.126 38.1501V3.69842C186.126 1.81205 187.656 0.282562 189.542 0.282562C191.416 0.282562 192.945 1.81205 192.945 3.69842V38.1501C192.945 40.0238 191.416 41.5533 189.542 41.5533Z" fill="#FBBD28"/>
<path d="M134.608 24.8309C134.608 22.9573 136.137 21.4278 138.011 21.4278H162.101C163.974 21.4278 165.504 22.9573 165.504 24.8309C165.504 26.7045 163.974 28.234 162.101 28.234H138.011C136.137 28.234 134.608 26.7045 134.608 24.8309Z" fill="#FBBD28"/>
<path d="M213.67 14.1882C213.67 6.55348 207.488 0.359049 199.853 0.333557C199.841 0.333557 199.841 0.333557 199.828 0.333557H199.815H199.802C197.916 0.346303 196.387 1.87579 196.387 3.77491C196.387 5.67402 197.929 7.21626 199.828 7.21626V7.27998C203.652 7.27998 206.749 10.3772 206.749 14.1882C206.749 18.0119 203.652 21.1091 199.828 21.1091V21.1728C197.929 21.1728 196.387 22.7151 196.387 24.6142C196.387 26.5006 197.916 28.0428 199.802 28.0555H199.815H199.828C199.841 28.0555 199.841 28.0555 199.853 28.0555C207.488 28.03 213.67 21.8356 213.67 14.1882Z" fill="#FBBD28"/>
<path d="M234.28 3.78766C234.28 5.68678 232.737 7.22901 230.838 7.22901C228.939 7.22901 227.397 5.68678 227.397 3.78766C227.397 1.88855 228.939 0.346313 230.838 0.346313C232.737 0.346313 234.28 1.88855 234.28 3.78766Z" fill="#FBBD28"/>
</svg>